<svg role="img" xmlns="http://www.w3.org/2000/svg" width="24" height="24" viewBox="0 0 24 24"><title>slider</title><g fill="none"><path d="M21 16C21.5523 16 22 16.4477 22 17C22 17.5523 21.5523 18 21 18H6C5.44772 18 5 17.5523 5 17C5 16.4477 5.44772 16 6 16H21ZM18 6C18.5523 6 19 6.44772 19 7C19 7.55228 18.5523 8 18 8H3C2.44772 8 2 7.55228 2 7C2 6.44772 2.44772 6 3 6H18Z" fill="url(#1752500502803-117796_slider_existing_0_hyresn85p)" data-glass="origin" mask="url(#1752500502803-117796_slider_mask_a2vozkw8g)"></path><path d="M21 16C21.5523 16 22 16.4477 22 17C22 17.5523 21.5523 18 21 18H6C5.44772 18 5 17.5523 5 17C5 16.4477 5.44772 16 6 16H21ZM18 6C18.5523 6 19 6.44772 19 7C19 7.55228 18.5523 8 18 8H3C2.44772 8 2 7.55228 2 7C2 6.44772 2.44772 6 3 6H18Z" fill="url(#1752500502803-117796_slider_existing_0_hyresn85p)" data-glass="clone" filter="url(#1752500502803-117796_slider_filter_da5b1ukzi)" clip-path="url(#1752500502803-117796_slider_clipPath_vbo3uq7ur)"></path><path d="M6.5 12.5C8.98528 12.5 11 14.5147 11 17C11 19.4853 8.98528 21.5 6.5 21.5C4.01472 21.5 2 19.4853 2 17C2 14.5147 4.01472 12.5 6.5 12.5ZM17.5 2.5C19.9853 2.5 22 4.51472 22 7C22 9.48528 19.9853 11.5 17.5 11.5C15.0147 11.5 13 9.48528 13 7C13 4.51472 15.0147 2.5 17.5 2.5Z" fill="url(#1752500502803-117796_slider_existing_1_xqlxezvu1)" data-glass="blur"></path><path d="M21.25 7C21.25 4.92893 19.5711 3.25 17.5 3.25C15.4289 3.25 13.75 4.92893 13.75 7C13.75 9.07107 15.4289 10.75 17.5 10.75V11.5C15.0147 11.5 13 9.48528 13 7C13 4.51472 15.0147 2.5 17.5 2.5C19.9853 2.5 22 4.51472 22 7C22 9.48528 19.9853 11.5 17.5 11.5V10.75C19.5711 10.75 21.25 9.07107 21.25 7Z" fill="url(#1752500502803-117796_slider_existing_2_xr82swts4)"></path><path d="M10.25 17C10.25 14.9289 8.57107 13.25 6.5 13.25C4.42893 13.25 2.75 14.9289 2.75 17C2.75 19.0711 4.42893 20.75 6.5 20.75V21.5C4.01472 21.5 2 19.4853 2 17C2 14.5147 4.01472 12.5 6.5 12.5C8.98528 12.5 11 14.5147 11 17C11 19.4853 8.98528 21.5 6.5 21.5V20.75C8.57107 20.75 10.25 19.0711 10.25 17Z" fill="url(#1752500502803-117796_slider_existing_3_16rvcc37b)"></path><defs><linearGradient id="1752500502803-117796_slider_existing_0_hyresn85p" x1="12" y1="-.5" x2="12" y2="18" gradientUnits="userSpaceOnUse"><stop stop-color="#539BFF"></stop><stop offset="1" stop-color="#367FE6"></stop></linearGradient><linearGradient id="1752500502803-117796_slider_existing_1_xqlxezvu1" x1="12" y1="2.5" x2="12" y2="21.5" gradientUnits="userSpaceOnUse"><stop stop-color="#D0E4FF" stop-opacity=".6"></stop><stop offset="1" stop-color="#A1C8FF" stop-opacity=".6"></stop></linearGradient><linearGradient id="1752500502803-117796_slider_existing_2_xr82swts4" x1="17.5" y1="2.5" x2="17.5" y2="7.712" gradientUnits="userSpaceOnUse"><stop stop-color="#fff"></stop><stop offset="1" stop-color="#fff" stop-opacity="0"></stop></linearGradient><linearGradient id="1752500502803-117796_slider_existing_3_16rvcc37b" x1="6.5" y1="12.5" x2="6.5" y2="17.712" gradientUnits="userSpaceOnUse"><stop stop-color="#fff"></stop><stop offset="1" stop-color="#fff" stop-opacity="0"></stop></linearGradient><filter id="1752500502803-117796_slider_filter_da5b1ukzi" x="-100%" y="-100%" width="400%" height="400%" filterUnits="objectBoundingBox" primitiveUnits="userSpaceOnUse"><feGaussianBlur stdDeviation="2" x="0%" y="0%" width="100%" height="100%" in="SourceGraphic" edgeMode="none" result="blur"></feGaussianBlur></filter><clipPath id="1752500502803-117796_slider_clipPath_vbo3uq7ur"><path d="M6.5 12.5C8.98528 12.5 11 14.5147 11 17C11 19.4853 8.98528 21.5 6.5 21.5C4.01472 21.5 2 19.4853 2 17C2 14.5147 4.01472 12.5 6.5 12.5ZM17.5 2.5C19.9853 2.5 22 4.51472 22 7C22 9.48528 19.9853 11.5 17.5 11.5C15.0147 11.5 13 9.48528 13 7C13 4.51472 15.0147 2.5 17.5 2.5Z" fill="url(#1752500502803-117796_slider_existing_1_xqlxezvu1)"></path></clipPath><mask id="1752500502803-117796_slider_mask_a2vozkw8g"><rect width="100%" height="100%" fill="#FFF"></rect><path d="M6.5 12.5C8.98528 12.5 11 14.5147 11 17C11 19.4853 8.98528 21.5 6.5 21.5C4.01472 21.5 2 19.4853 2 17C2 14.5147 4.01472 12.5 6.5 12.5ZM17.5 2.5C19.9853 2.5 22 4.51472 22 7C22 9.48528 19.9853 11.5 17.5 11.5C15.0147 11.5 13 9.48528 13 7C13 4.51472 15.0147 2.5 17.5 2.5Z" fill="#000"></path></mask></defs></g></svg>
